<svg xmlns="http://www.w3.org/2000/svg" viewBox="0 0 1830 1830"><defs><style>.cls-1{fill:#f2e6dc;}.cls-2{fill:#e6d0be;}.cls-3{fill:#d87355;}.cls-4{fill:#fff;}.cls-5{fill:#d3bba3;}.cls-6{fill:#84524d;}.cls-7{fill:#363e44;}.cls-8{fill:#8b865c;}.cls-9{fill:#efbc73;}.cls-10{fill:#ffd092;}.cls-11{fill:#e0aa63;}.cls-12{fill:#f7f1eb;}</style></defs><g id="Layer_2" data-name="Layer 2"><g id="Illustration"><g id="_404_error" data-name="404 error"><circle class="cls-1" cx="915" cy="915" r="915"/><path class="cls-2" d="M1404.26,1375.3c10.82,9-4,25.08,1.12,29.87,5.09,4.47,8.44,7.84,14.39,10.07,29.22-56.57,91.65-95.4,168.39-85.64a149.56,149.56,0,0,1,104.62,64.21c46.68,68.78,35.86,148.22-9,200.09,18,16.1,21.65,18.75,41.58,40.1a260.39,260.39,0,0,1,29.8-2.64l-6.53-6.89a232.2,232.2,0,0,0,19-31l23.77,7,23.85-80.31-23.72-7a228,228,0,0,0,1-36.36l24.08-5.76-19.51-81.48-24.07,5.76a228.54,228.54,0,0,0-17.32-32l18-17-57.63-60.81-18,17a232.71,232.71,0,0,0-31-19l7.06-23.77L1593.82,1236l-7,23.71a229,229,0,0,0-36.35-1l-5.77-24.07-81.48,19.5,5.76,24.08a229,229,0,0,0-32,17.31l-17-18-60.82,57.63,11.84,12.48a80.53,80.53,0,0,0,9.83,8.81C1388.86,1362.64,1395.12,1367.66,1404.26,1375.3Z"/><path class="cls-2" d="M1526.4,1812.75l81.48-19.51-5.77-24.07a228.54,228.54,0,0,0,32-17.32l17,18,60.81-57.64h0l-10.52-11.1a256.12,256.12,0,0,0-29.81,2.64c-16-16.34-22.93-27.25-41.57-40.1-33.4,38.65-85.67,62-147.12,54.19a149.56,149.56,0,0,1-104.62-64.21c-38-56-37.9-119.13-12.32-168.65-6-2.22-11.08-5.17-14.39-10.07-3.6-4-1.36-9,4.44-19,1.51-2.62-.54-6-3.43-8.68-8.37-8.23-30.2-24.24-30.2-24.24a230.65,230.65,0,0,0-19,31l-23.77-7.06-23.85,80.32,23.72,7a226.7,226.7,0,0,0-1,36.35l-24.08,5.77h0l19.5,81.48,24.08-5.76a229.1,229.1,0,0,0,17.32,32l-18,17,57.63,60.82,18-17.06a231.68,231.68,0,0,0,31,19l-7.06,23.77h0l80.32,23.85,7-23.72a227.87,227.87,0,0,0,36.35,1Z"/><circle class="cls-3" cx="1534.22" cy="1513.71" r="127.11" transform="translate(-620.99 1528.21) rotate(-45)"/><circle class="cls-4" cx="1534.22" cy="1513.71" r="108.58" transform="translate(-620.99 1528.21) rotate(-45)"/><polygon class="cls-3" points="1549.45 1545.79 1518.99 1545.79 1512.19 1442.35 1556.24 1442.35 1549.45 1545.79"/><rect class="cls-3" x="1518.99" y="1560.05" width="30.46" height="25.03"/><rect class="cls-5" x="466.78" y="149.48" width="1360.34" height="964.63" transform="translate(2293.9 1263.6) rotate(180)"/><rect class="cls-4" x="748.66" y="-47.03" width="796.59" height="1274.98" transform="translate(1737.41 -556.49) rotate(90)"/><path class="cls-5" d="M1003.76,1134.55H1044a54.7,54.7,0,0,0,54.7,54.7h96.44a54.7,54.7,0,0,0,54.7-54.7h40.27l40.28,214v17.9H963.48v-17.9Z"/><path class="cls-2" d="M1330.42,1391.06H963.48a2.21,2.21,0,0,1,0-4.41h366.94a2.21,2.21,0,0,1,0,4.41Z"/><path class="cls-3" d="M1554.23,928.36H721.05a2.2,2.2,0,0,1-1.89-3.33l416.59-695.19a2.29,2.29,0,0,1,3.78,0L1556.12,925a2.19,2.19,0,0,1-1.89,3.33ZM725,924h825.39l-412.7-688.7Z"/><polygon class="cls-3" points="1137.64 289.51 772.33 899.14 1502.96 899.14 1137.64 289.51"/><path class="cls-4" d="M1069.09,634.33h12.1v17.08h-12.1V674.5H1047.9V651.41h-43.77l-1-13.34,44.5-70.32h21.41Zm-44.8,0h23.61V596.64l-1.39,2.42Z"/><path class="cls-4" d="M1164.4,630.37q0,22.14-9.16,33.87T1128.4,676q-17.45,0-26.68-11.51t-9.46-33V611.82q0-22.37,9.27-34t26.73-11.58q17.45,0,26.69,11.47t9.45,33Zm-21.18-21.6q0-13.29-3.63-19.34t-11.33-6.06q-7.48,0-11,5.76t-3.77,18v26q0,13.07,3.55,19.41t11.4,6.35c5.18,0,8.93-2,11.22-6.09s3.5-10.28,3.6-18.64Z"/><path class="cls-4" d="M1241.39,634.33h12.09v17.08h-12.09V674.5H1220.2V651.41h-43.77l-1-13.34L1220,567.75h21.41Zm-44.8,0h23.61V596.64l-1.4,2.42Z"/><path class="cls-4" d="M985.79,796H946.14v26.85h46.53v16.59H925.49V739.22h67V756H946.14v23.88h39.65Z"/><path class="cls-4" d="M1041.89,802.76h-16.45v36.69h-20.65V739.22H1042q17.76,0,27.4,7.92t9.63,22.37q0,10.26-4.44,17.1t-13.45,10.91l21.68,41v1h-22.17ZM1025.44,786h16.66q7.77,0,12-4t4.27-10.91q0-7.08-4-11.15T1042,756h-16.59Z"/><path class="cls-4" d="M1131.86,802.76h-16.45v36.69h-20.65V739.22H1132q17.76,0,27.39,7.92t9.64,22.37q0,10.26-4.44,17.1t-13.45,10.91l21.68,41v1h-22.17ZM1115.41,786h16.66q7.77,0,12-4t4.27-10.91q0-7.08-4-11.15T1132,756h-16.59Z"/><path class="cls-4" d="M1267.06,791.61q0,14.79-5.24,25.95a39.4,39.4,0,0,1-15,17.21,44.26,44.26,0,0,1-44.57.06,39.74,39.74,0,0,1-15.14-17.1q-5.37-11.12-5.44-25.58V787.2q0-14.81,5.33-26.05a39.65,39.65,0,0,1,15.08-17.28,44.12,44.12,0,0,1,44.53,0,39.65,39.65,0,0,1,15.08,17.28q5.34,11.25,5.34,26Zm-20.93-4.55q0-15.76-5.65-23.95t-16.1-8.19q-10.39,0-16,8.08t-5.72,23.72v4.89q0,15.35,5.65,23.81t16.24,8.47q10.4,0,16-8.16t5.65-23.78Z"/><path class="cls-4" d="M1319.16,802.76h-16.45v36.69h-20.65V739.22h37.24q17.76,0,27.4,7.92t9.64,22.37q0,10.26-4.44,17.1t-13.46,10.91l21.68,41v1H1338ZM1302.71,786h16.66q7.79,0,12.05-4t4.27-10.91q0-7.08-4-11.15c-2.69-2.71-6.8-4.06-12.36-4.06h-16.59Z"/><path class="cls-2" d="M425.21,1599.46s-37.55,21.83-67.71,109.23Q567.08,1817.43,569.24,1814a.21.21,0,0,0,0-.16,93.76,93.76,0,0,0,10-30.86c11.61-85-105.67-154.25-115.43-159.86Z"/><path class="cls-6" d="M460,1537.39l-44.88,75.49c-9.54,16-2.95,36.19,14.64,44.78h0c16,7.8,35.76,3.38,46-10.28l40.77-54.2Z"/><path class="cls-7" d="M517.8,781s124.61,262.51,127.28,503.67c2.55,230.31-136.32,345.92-136.32,345.92L430.91,1559s96.81-377.88-92.23-544.16L315.48,801.6Z"/><path class="cls-1" d="M315.54,1681s-22,62.81-21.26,133.32l170.51,1.82c0-.09-4.44-88.2-104.92-134.67Z"/><path class="cls-6" d="M283.82,1619.44c1,2.58,18.25,49,27.66,74.39,5.52,14.91,22.81,23.46,39.22,19l.8-.23c15.46-4.49,24.44-19.32,21.19-33.94l-16.95-76.3Z"/><path class="cls-7" d="M278.38,1651.38s52.19,14.13,112.48-13.15c0,0-25.22-502.5,31.82-693.82L405,812.38,185.91,844S109.71,1198.45,278.38,1651.38Z"/><path class="cls-4" d="M398.09,1081a1.75,1.75,0,0,1-.4,0,2.2,2.2,0,0,1-1.77-2.56l10.34-56.2a2.2,2.2,0,1,1,4.33.79l-10.34,56.2A2.19,2.19,0,0,1,398.09,1081Z"/><path class="cls-8" d="M25.36,733.61c2.59-1.18-1.52-235.45,352.82-278.54s394,104.8,394,104.8L773,623.7,577.93,670.2l33.55,275.45L145.75,981.76,185.59,785Z"/><path class="cls-8" d="M778.1,431.75h0C795.16,465.84,779,491,744.9,508h0c-34.09,17.06-73.19,19.61-90.25-14.48l46.61,93.11a69,69,0,0,0,92.62,30.83h0a69,69,0,0,0,30.83-92.62Z"/><path class="cls-8" d="M25.36,733.61S-4.18,892.9,216.64,873.89L321.32,757.31,144.44,696.88Z"/><path class="cls-7" d="M233.93,731.14a2.21,2.21,0,0,1-.75-.14l-67.33-24.47a2.21,2.21,0,1,1,1.51-4.15l67.33,24.48a2.21,2.21,0,0,1-.76,4.28Z"/><path class="cls-7" d="M578.45,661.71a2,2,0,0,1-.42,0,2.19,2.19,0,0,1-1.74-2.59l8.56-43.71a2.21,2.21,0,1,1,4.33.85l-8.57,43.71A2.19,2.19,0,0,1,578.45,661.71Z"/><path class="cls-7" d="M712.92,603.67a2.2,2.2,0,0,1-2-1.36L680.3,528.22a2.21,2.21,0,0,1,4.08-1.68L715,600.62a2.23,2.23,0,0,1-1.2,2.89A2.28,2.28,0,0,1,712.92,603.67Z"/><path class="cls-9" d="M431.45,413.07c-43.64.36-110.26,6.65-187.15,33.5A81.7,81.7,0,0,0,191,508.88s105.44-18,150.85,10.69c21.25,13.44,47,17.75,71.16,10.82l1.83-.52c27.28-7.82,49.4-27.64,58.88-54,5.75-16,18.8-28.15,46.58-28.36C505,422,463.79,412.8,431.45,413.07Z"/><path class="cls-1" d="M372.73,620.49a2.16,2.16,0,0,1-.89-.19,2.2,2.2,0,0,1-1.13-2.9A152.08,152.08,0,0,0,380.76,526l-3.46-17.41A2.21,2.21,0,0,1,379,506a2.19,2.19,0,0,1,2.59,1.73l3.46,17.4a156.6,156.6,0,0,1-10.34,94.09A2.21,2.21,0,0,1,372.73,620.49Z"/><path class="cls-1" d="M440.81,610.57h-.2a2.19,2.19,0,0,1-2-2.39,152.09,152.09,0,0,0-19.8-89.84L410,503a2.2,2.2,0,0,1,3.82-2.2l8.86,15.37A156.5,156.5,0,0,1,443,608.56,2.2,2.2,0,0,1,440.81,610.57Z"/><path class="cls-6" d="M138,831.35c21.65,49,133.29,53.57,205.24,54.8,9.6,3.35,24.47,6.9,40.82,2.93,18.63-4.53,21.34-14.5,40.26-22.34,31.94-13.24,56.09,3,60.3-8.54,2.89-7.9-10.77-17.94-25.62-23.87-15.24-6.07-27.66-3.59-28-6.26-.36-2.92,12.58-3.82,28.57-6.4,7.42-1.2,29.85,8.06,35.39-2.14,4.42-8.14-16.49-23.6-39.1-25.46-16-1.32-28.61,7.8-29.83,5.13-.9-2,6.75-7.25,14.7-9.81,13.12-4.22,36.16,5,41.08-4.48,4.81-9.3-13.68-22.48-34.37-25.51-17.43-2.56-31,8.29-32.55,5-1.07-2.33,4-8.45,18-17.53,11.65-7.58,39.2-14.81,33.09-28.19-5.14-11.25-34.25-4.34-59.91,7-8.85,3.91-20.83,11.9-31.64,19.4a55.87,55.87,0,0,1-44.74,8.39C298.28,746,240.39,736,214,731.18,188.07,729.29,104.43,755.38,138,831.35Z"/><polygon class="cls-6" points="344.46 466.4 369.13 393.44 431.55 409.94 411.94 470.37 344.46 466.4"/><path class="cls-7" d="M444,303a26.17,26.17,0,0,0-36.31-13.5l-56.22,29.07a23.39,23.39,0,0,0-10.17,35.59L365,386.29l93.64-46.87Z"/><path class="cls-6" d="M451.63,320.3c15,26.73,24.81,76.82-9.7,96.16s-72.12-15.17-87.1-41.9,10.94-59.3,37.67-74.29S436.65,293.56,451.63,320.3Z"/><path class="cls-6" d="M361.56,368.52c10.4,7.78,14.62,19.71,9.44,26.64s-17.82,6.24-28.22-1.54-14.62-19.7-9.43-26.64S351.17,360.74,361.56,368.52Z"/><path class="cls-7" d="M356.2,393.16h-.12A19.64,19.64,0,0,1,339.8,381c-1.22-3.43-.89-6.64.92-9.05a7.77,7.77,0,0,1,1.31-1.38,2.21,2.21,0,1,1,2.8,3.41,3.35,3.35,0,0,0-.58.61c-1.21,1.61-.71,3.79-.3,4.94a15.3,15.3,0,0,0,12.37,9.25,2.2,2.2,0,0,1-.12,4.4Z"/><path class="cls-7" d="M376.86,404.23a2.21,2.21,0,0,1-1.49-.58,117.83,117.83,0,0,1-20.58-24.8,2.2,2.2,0,0,1,3.76-2.3,113.29,113.29,0,0,0,19.79,23.84,2.21,2.21,0,0,1-1.48,3.84Z"/><path class="cls-4" d="M465.45,307.85a42.47,42.47,0,0,1-2.09,10.9c-1.31,4-8.44,4.31-11.86,8.08-4.28,4.7-4.78,11.58-9.23,13.18a40.58,40.58,0,0,1-7.88,2,38.74,38.74,0,0,1,.92-6.61c1.05-4.77,6.83-6.18,11.57-11.39,4-4.4,5.51-12.19,9.78-13.83A41,41,0,0,1,465.45,307.85Z"/><path class="cls-7" d="M443.33,319c-4.74,5.22-7,11.72-8,16.49a16.62,16.62,0,0,0,6.92,4.58,35.4,35.4,0,0,0,14.27-9.09,33.71,33.71,0,0,0,6.86-12.26,16.55,16.55,0,0,0-6.71-8.45A34.75,34.75,0,0,0,443.33,319Z"/><path class="cls-4" d="M376.87,357.5a43.11,43.11,0,0,0,12,4.25c3.72.72,7.29-4.91,11.65-5.74,5.8-1.11,11.44,1.91,15.07-.87a41.49,41.49,0,0,0,6.65-6.3,38.81,38.81,0,0,0-5.78-2.54c-4.62-1.64-9.88,5-17,6.37-5.85,1.11-12.43-4.2-16.06-1.4A40.74,40.74,0,0,0,376.87,357.5Z"/><path class="cls-7" d="M416.35,346.26c-4.63-1.62-11.43-3.18-18.46-1.84a34.74,34.74,0,0,0-14.46,6.87,16.62,16.62,0,0,0,4.43,9.63c.26.27.54.52.81.77a32.88,32.88,0,0,0,12.56.23,34.9,34.9,0,0,0,14.47-6.86A16.79,16.79,0,0,0,416.35,346.26Z"/><path class="cls-7" d="M423.4,424c-7.87,0-15.57-1.71-22.23-3.56a2.21,2.21,0,0,1,1.18-4.25c12.25,3.4,26.45,6,38.89-.79s17.89-20.64,21.23-32a2.21,2.21,0,1,1,4.23,1.25c-3.58,12.16-9.48,27.08-23.35,34.61A41.24,41.24,0,0,1,423.4,424Z"/><path class="cls-7" d="M441.55,368.82a2.16,2.16,0,0,1-1.18-.35,2.19,2.19,0,0,1-.67-3c1.15-1.8,1.59-3.29,1.26-4.19-.22-.57-.74-.92-2.07-1.69a19.73,19.73,0,0,1-3.85-2.71,17.44,17.44,0,0,1-4.6-7.28,2.2,2.2,0,1,1,4.17-1.42A13.09,13.09,0,0,0,438,353.6a15.85,15.85,0,0,0,3.06,2.14c1.57.91,3.2,1.85,4,3.95.86,2.29.29,5-1.68,8.11A2.2,2.2,0,0,1,441.55,368.82Z"/><path class="cls-7" d="M416,399.81a2.21,2.21,0,0,1-2.2-2.09,11.93,11.93,0,0,1,4.71-9.81,10.9,10.9,0,0,1,6.36-2.27,2.27,2.27,0,0,1,2.24,2.17,2.2,2.2,0,0,1-2.17,2.24,6.46,6.46,0,0,0-3.76,1.37,7.38,7.38,0,0,0-3,6.06,2.2,2.2,0,0,1-2.08,2.32Z"/><path class="cls-3" d="M332.28,334.22l101.05-50.58h0a56.5,56.5,0,0,0-75.82-25.24h0a56.51,56.51,0,0,0-25.23,75.82Z"/><path class="cls-3" d="M338.3,342.52c28.94-25.39,61.13-42.42,97.46-48.78a10.28,10.28,0,0,0,4.59-13.8h0a10.27,10.27,0,0,0-13.79-4.59l-97.47,48.79a10.28,10.28,0,0,0-4.59,13.79h0A10.28,10.28,0,0,0,338.3,342.52Z"/><path class="cls-10" d="M333.45,323.72a2.21,2.21,0,0,1-1.34-4c1.1-.83,27.08-20.49,40.45-26.61a2.2,2.2,0,1,1,1.83,4c-12.93,5.92-39.35,25.91-39.61,26.12A2.21,2.21,0,0,1,333.45,323.72Z"/><ellipse class="cls-6" cx="379.33" cy="468.33" rx="48.07" ry="13.31" transform="translate(-38.78 34.27) rotate(-4.92)"/><path class="cls-6" d="M755.32,328.5c6.51,33.6-16.4,76.17-45.46,78.67S649,368.75,646.54,339.69s19.9-49.62,48.07-57.14C734.38,272,749.78,299.94,755.32,328.5Z"/><path class="cls-6" d="M753.66,522.46h0a62.74,62.74,0,0,0,28-84.17h0L707.09,315.52l-93.63,46.86,56,132.07A62.74,62.74,0,0,0,753.66,522.46Z"/><path class="cls-11" d="M618.91,281.89c-4,.35-11.43,2.69-11.43,2.69l-45.05,17.74h0c-11.25,4.19-18.78,17.36-17.5,32.22s11,26.59,22.82,28.77h0l47.31,9.3a32.19,32.19,0,0,0,11.76,1.16c21.06-1.81,36.36-23.85,34.18-49.22S640,280.08,618.91,281.89Z"/><path class="cls-9" d="M673.47,255c-6,.52-16.93,4-16.93,4l-66.66,26.26h0c-16.66,6.2-27.8,25.7-25.9,47.69s16.25,39.36,33.76,42.58h0l70,13.75A47.71,47.71,0,0,0,685.18,391c31.16-2.68,53.81-35.3,50.58-72.85S704.63,252.29,673.47,255Z"/><path class="cls-12" d="M681,393.35c-14.22,0-27.94-6.06-39-17.32-12.13-12.29-19.69-29.34-21.3-48s2.93-36.77,12.77-50.95,24.08-22.94,39.82-24.29,31.14,4.73,43.37,17.13,19.69,29.34,21.3,48h0c1.61,18.67-2.93,36.77-12.77,50.95s-24.07,22.93-39.81,24.29C683.92,393.28,682.48,393.35,681,393.35ZM677.58,257c-1.3,0-2.61.06-3.92.17-14.41,1.24-27.4,9.2-36.57,22.41s-13.53,30.41-12,48.06,8.64,33.74,20,45.3S670.58,390,685,388.77s27.39-9.2,36.57-22.42,13.52-30.4,12-48.05-8.64-33.74-20-45.3C703.25,262.6,690.62,257,677.58,257Z"/><ellipse class="cls-7" cx="679.32" cy="322.97" rx="46.3" ry="55.78" transform="translate(-25.21 59.48) rotate(-4.92)"/><path class="cls-11" d="M480.4,293.82c-4,.35-11.44,2.68-11.44,2.68l-45,17.75h0c-11.25,4.19-18.78,17.36-17.5,32.22s11,26.59,22.81,28.77h0l47.31,9.3a32.46,32.46,0,0,0,11.77,1.16c21.06-1.81,36.36-23.85,34.18-49.23S501.46,292,480.4,293.82Z"/><path class="cls-9" d="M535,266.9c-6,.52-16.92,4-16.92,4l-66.67,26.26h0c-16.65,6.2-27.79,25.7-25.9,47.69s16.26,39.36,33.77,42.58h0l70,13.76a47.68,47.68,0,0,0,17.41,1.72c31.17-2.68,53.82-35.3,50.58-72.85S566.12,264.22,535,266.9Z"/><path class="cls-12" d="M542.53,405.27c-14.22,0-27.94-6-39.06-17.31-12.12-12.29-19.68-29.34-21.29-48S485.11,303.18,495,289s24.07-22.94,39.81-24.29,31.15,4.72,43.38,17.12,19.69,29.34,21.3,48h0c1.61,18.67-2.93,36.77-12.78,50.95s-24.07,22.93-39.81,24.29Q544.69,405.27,542.53,405.27Zm-3.46-136.34c-1.31,0-2.62.06-3.93.17-14.41,1.24-27.39,9.2-36.57,22.41s-13.52,30.41-12,48.06,8.64,33.73,20,45.29,25.46,17.08,39.86,15.83,27.4-9.2,36.57-22.41,13.53-30.4,12-48-8.64-33.74-20-45.3C564.74,274.52,552.1,268.93,539.07,268.93Z"/><ellipse class="cls-7" cx="540.81" cy="334.9" rx="46.3" ry="55.78" transform="translate(-26.74 47.63) rotate(-4.92)"/><path class="cls-12" d="M624.34,337.4c-9.83-6.06-18.31-4.83-25.72,2.22l-.86-9.92,25.73-2.21Z"/><path class="cls-6" d="M648.4,385.44a64.14,64.14,0,0,1-34.94-23.06c-12.74-16.57-27.23,16.27,3,34.5S648.4,385.44,648.4,385.44Z"/><path class="cls-7" d="M687.79,399.17a2.21,2.21,0,0,1-.11-4.41c.28,0,28.42-1.66,39-24.15a2.21,2.21,0,1,1,4,1.88c-11.68,24.92-41.48,26.62-42.74,26.68Z"/><path class="cls-12" d="M795,1571.06c-2.78-8.77-10-31.7-10-31.7s21.72-6,30.5-8.8q20.73-6.6,35.43-18.22a58.26,58.26,0,0,0,20-28.93q5.36-17.29-2-40.57-5.46-17.19-18-27.7a61.67,61.67,0,0,0-29.35-13.51q-16.83-3-35,2.78a73.17,73.17,0,0,0-25,13.5,87.09,87.09,0,0,0-18.17,20.81,186,186,0,0,0-8.53,17L677.65,1431a99.77,99.77,0,0,1,7.09-17.6,135.54,135.54,0,0,1,33.5-42.67,139.9,139.9,0,0,1,49.06-27q34.92-11.09,68.05-4.08a129.91,129.91,0,0,1,58.36,28.53q25.21,21.51,36,55.4,8,25.31,6.64,47.18A100.43,100.43,0,0,1,925.44,1511a114,114,0,0,1-25.31,32.55,163.5,163.5,0,0,1-36.07,24.38c-1.39.56-2.86,1.23-2.87,1.16l16.48,51.8-60.21,18.26Zm78.62,151q-14.67,4.67-25-.69t-15-20l-2.73-8.6q-4.67-14.65.69-25t20-15l6.58-2.09q14.66-4.65,25,.69t15,20l2.73,8.6q4.67,14.68-.69,25t-20,15Z"/><path class="cls-5" d="M844.4,1737.87a28.51,28.51,0,0,1-13.29-3.1c-7.39-3.82-12.81-11-16.08-21.31l-2.74-8.6c-3.27-10.32-3-19.29.83-26.69s11-12.8,21.31-16.08L841,1660c10.31-3.27,19.28-3,26.69.83s12.8,11,16.08,21.31l2.73,8.6c3.28,10.31,3,19.29-.83,26.69s-11,12.8-21.31,16.08l-6.58,2.09h0A44.39,44.39,0,0,1,844.4,1737.87Zm12.72-4.37h0Zm-2.75-71.35a39.79,39.79,0,0,0-12,2l-6.58,2.09c-9.16,2.91-15.46,7.59-18.73,13.91s-3.46,14.17-.55,23.32l2.74,8.6c2.91,9.17,7.59,15.47,13.9,18.73s14.16,3.46,23.33.55l6.57-2.09c9.16-2.91,15.46-7.59,18.73-13.91s3.46-14.17.55-23.32l-2.73-8.6c-2.91-9.15-7.59-15.45-13.91-18.73A24.3,24.3,0,0,0,854.37,1662.15Zm-53.4-9.43a2.2,2.2,0,0,1-2.09-1.51l-22.47-68v0c-2.78-8.76-9.95-31.7-9.95-31.7a2.17,2.17,0,0,1,.17-1.71,2.14,2.14,0,0,1,1.34-1.07c.22-.06,21.79-6.05,30.42-8.79,13.52-4.29,25.21-10.3,34.73-17.85a56.24,56.24,0,0,0,19.31-27.85c3.43-11,2.75-24.24-2-39.25-3.5-11-9.32-20-17.31-26.68a59.89,59.89,0,0,0-28.33-13c-10.81-1.93-22.24-1-34,2.71a71.08,71.08,0,0,0-24.2,13.09,85.28,85.28,0,0,0-17.72,20.29,184,184,0,0,0-8.38,16.67,2.2,2.2,0,0,1-2.89,1.13l-57.29-24.69a2.21,2.21,0,0,1-1.26-2.61,103,103,0,0,1,7.26-18,138.32,138.32,0,0,1,34-43.33A142.56,142.56,0,0,1,750.15,1353c23.53-7.48,46.8-8.87,69.17-4.14a132.69,132.69,0,0,1,59.33,29c17.05,14.55,29.39,33.52,36.66,56.41,5.42,17,7.68,33.19,6.73,48a102.85,102.85,0,0,1-11.13,41.09,116.89,116.89,0,0,1-25.79,33.18,165.87,165.87,0,0,1-36.56,24.7l-1.14.48,15.87,49.85a2.21,2.21,0,0,1-1.46,2.78l-60.22,18.26A2.35,2.35,0,0,1,801,1652.72ZM780.6,1581.8l21.79,66,56-17-15.81-49.67a2.2,2.2,0,0,1,.69-2.36,2.07,2.07,0,0,1,.9-.45l.88-.37c.5-.22,1.1-.47,1.68-.7a161.7,161.7,0,0,0,35.42-24A112.19,112.19,0,0,0,907,1521.35,98.63,98.63,0,0,0,917.64,1482c.91-14.25-1.28-29.85-6.54-46.38-7-22.08-18.89-40.38-35.31-54.39a128.36,128.36,0,0,0-57.38-28c-21.61-4.58-44.13-3.22-66.93,4a138.25,138.25,0,0,0-48.29,26.58,134,134,0,0,0-33,42,103.29,103.29,0,0,0-6.38,15.37l53.49,23a168.37,168.37,0,0,1,7.77-15.2,89.66,89.66,0,0,1,18.64-21.37,75.65,75.65,0,0,1,25.7-13.91c12.43-3.94,24.57-4.9,36.1-2.84a64.21,64.21,0,0,1,30.38,14c8.64,7.25,14.92,16.91,18.68,28.73,5,15.88,5.73,30,2,41.89a60.58,60.58,0,0,1-20.78,30c-9.94,7.88-22.1,14.14-36.13,18.59-7.06,2.25-22.63,6.62-28.38,8.22C773.19,1558.22,778.34,1574.67,780.6,1581.8Z"/><path class="cls-12" d="M1529.9,554.51c1.73-7.42,6.34-26.78,6.34-26.78s18,4.91,25.45,6.64a91.09,91.09,0,0,0,32.94,2,48.18,48.18,0,0,0,26.53-12.1q11.14-10,15.74-29.75a48.23,48.23,0,0,0-1.08-27.35,51.25,51.25,0,0,0-15.19-22.05,59.91,59.91,0,0,0-26.13-12.86,60.64,60.64,0,0,0-23.48-1,72.25,72.25,0,0,0-21.76,7.13,156,156,0,0,0-13.25,8.46l-30.34-41.85a83.24,83.24,0,0,1,12.5-9.53,112.23,112.23,0,0,1,41.93-16.19,115.65,115.65,0,0,1,46.38,1.54q29.55,6.89,50.18,25.92a107.49,107.49,0,0,1,29.47,45q8.85,26,2.16,54.69-5,21.42-15.25,36.41a83.19,83.19,0,0,1-24.79,24,94.76,94.76,0,0,1-31.8,12.46,135.53,135.53,0,0,1-36,2.08c-1.22-.19-2.55-.34-2.54-.39L1567.7,625l-50.61-12.5Zm-8,140.84q-12.42-2.9-17.51-11.08t-2.2-20.61l1.69-7.28Q1506.8,644,1515,638.87t20.61-2.2l5.57,1.3q12.42,2.89,17.51,11.08t2.2,20.6l-1.7,7.29q-2.9,12.42-11.08,17.51t-20.6,2.2Z"/><path class="cls-5" d="M1519.35,701a39.66,39.66,0,0,1-8.93-1.1l-5.56-1.3h0c-8.84-2-15.2-6.11-18.89-12.06s-4.53-13.43-2.47-22.27l1.69-7.28c2.06-8.83,6.12-15.19,12.07-18.89s13.43-4.53,22.27-2.47l5.57,1.3c8.82,2,15.17,6.11,18.88,12.06s4.53,13.45,2.47,22.27l-1.69,7.28c-2.06,8.83-6.12,15.19-12.07,18.89A24.76,24.76,0,0,1,1519.35,701Zm-13.5-6.69,5.57,1.3c7.66,1.78,14,1.13,18.94-1.93s8.32-8.49,10.1-16.14l1.7-7.28c1.78-7.64,1.13-14-1.93-18.94s-8.49-8.32-16.14-10.1l-5.57-1.3c-7.65-1.78-14-1.13-18.93,1.93s-8.32,8.49-10.1,16.14l-1.7,7.28c-1.78,7.66-1.14,14,1.92,18.94s8.49,8.32,16.14,10.1Zm45.27-66a2.46,2.46,0,0,1-.53-.06L1500,615.77a2.21,2.21,0,0,1-1.62-2.62l12.82-58v0c1.73-7.42,6.34-26.79,6.34-26.79a2.25,2.25,0,0,1,1-1.39,2.22,2.22,0,0,1,1.71-.23c.18,0,18.06,4.92,25.36,6.63a89.7,89.7,0,0,0,32.15,2,46.34,46.34,0,0,0,25.35-11.56c7.05-6.36,12.12-16,15.06-28.62a46.15,46.15,0,0,0-1-26.11A49.32,49.32,0,0,0,1602.62,448a58.25,58.25,0,0,0-25.19-12.38,58.86,58.86,0,0,0-22.64-.92,70.4,70.4,0,0,0-21.09,6.9c-5.28,2.83-12.91,8.25-13,8.3a2.21,2.21,0,0,1-3.06-.5l-30.34-41.85a2.21,2.21,0,0,1,.26-2.88,84.36,84.36,0,0,1,12.86-9.81,114.81,114.81,0,0,1,42.72-16.5,118.67,118.67,0,0,1,47.25,1.57c20,4.66,37.21,13.55,51.18,26.44a110.31,110.31,0,0,1,30.06,45.94c6,17.65,6.76,36.46,2.22,55.9-3.37,14.48-8.61,27-15.58,37.15A85.73,85.73,0,0,1,1632.84,570a97.26,97.26,0,0,1-32.54,12.75,138.32,138.32,0,0,1-36.59,2.12l-.7-.1-9.74,41.88a2.2,2.2,0,0,1-2.15,1.7Zm-48-16.33,46.35,11.45,9.69-41.69a2.22,2.22,0,0,1,1.81-1.68,2.27,2.27,0,0,1,1,.07l.72.1,1.53.22a133.65,133.65,0,0,0,35.24-2.07,92.7,92.7,0,0,0,31.07-12.17,81.24,81.24,0,0,0,24.13-23.4c6.66-9.72,11.68-21.72,14.93-35.66,4.34-18.63,3.64-36.63-2.1-53.48a105.89,105.89,0,0,0-28.88-44.11c-13.41-12.37-29.95-20.91-49.19-25.39a114,114,0,0,0-45.5-1.53,110.64,110.64,0,0,0-41.11,15.89,84.63,84.63,0,0,0-10.75,8L1520,445c2.64-1.82,7.7-5.21,11.7-7.35a74.7,74.7,0,0,1,22.44-7.36,63.08,63.08,0,0,1,24.34,1,62.34,62.34,0,0,1,27.07,13.34,53.56,53.56,0,0,1,15.82,23,50.61,50.61,0,0,1,1.15,28.57c-3.15,13.53-8.67,23.92-16.41,30.89a50.62,50.62,0,0,1-27.71,12.66,93.65,93.65,0,0,1-33.73-2.07c-5.84-1.36-18.28-4.7-23.33-6.07-1.26,5.29-4.44,18.67-5.81,24.55Z"/><path class="cls-12" d="M144.73,234.21c-2.25-7.08-8-25.59-8-25.59s17.54-4.86,24.62-7.11a88.85,88.85,0,0,0,28.61-14.72,47,47,0,0,0,16.19-23.35q4.33-14-1.64-32.76A47,47,0,0,0,190,108.31a49.86,49.86,0,0,0-23.7-10.91,62,62,0,0,0-48.45,13.15,70,70,0,0,0-14.67,16.8A150.12,150.12,0,0,0,96.24,141L50,121.1a81,81,0,0,1,5.72-14.21A109.55,109.55,0,0,1,82.76,72.44a112.73,112.73,0,0,1,39.62-21.81q28.19-9,54.94-3.29a104.78,104.78,0,0,1,47.12,23Q244.8,87.74,253.5,115.1q6.48,20.43,5.36,38.1a81.21,81.21,0,0,1-8.8,32.48A92,92,0,0,1,229.63,212a132.29,132.29,0,0,1-29.13,19.68c-1.12.45-2.31,1-2.32.94l13.31,41.83-48.62,14.74Zm63.48,121.94q-11.85,3.77-20.19-.55t-12.1-16.17l-2.21-6.94q-3.77-11.85.56-20.19t16.16-12.11l5.31-1.69q11.85-3.76,20.19.56T228,315.23l2.21,6.94q3.76,11.85-.56,20.19t-16.17,12.11Z"/><path class="cls-5" d="M184.63,369.32a23.38,23.38,0,0,1-10.93-2.55c-6.07-3.13-10.51-9-13.2-17.45l-2.2-6.95c-2.68-8.43-2.45-15.79.7-21.87s9-10.51,17.45-13.19l5.31-1.69c8.43-2.68,15.79-2.44,21.87.7s10.52,9,13.2,17.46l2.2,6.94c2.69,8.44,2.45,15.79-.69,21.87s-9,10.51-17.46,13.19l-5.31,1.69h0A36.1,36.1,0,0,1,184.63,369.32Zm10.27-3.95h0Zm-2.22-57.18a31.77,31.77,0,0,0-9.58,1.63l-5.31,1.69c-7.29,2.32-12.29,6-14.88,11s-2.72,11.22-.41,18.51l2.21,6.94c2.31,7.29,6,12.3,11,14.88s11.22,2.73,18.51.41l5.31-1.69c7.29-2.31,12.29-6,14.88-11s2.73-11.22.41-18.5l-2.2-6.95c-2.32-7.28-6-12.28-11-14.88A19.21,19.21,0,0,0,192.68,308.19Zm-43.12-7.62a2.2,2.2,0,0,1-2.09-1.51l-18.15-54.94v0c-2.25-7.08-8-25.61-8-25.61a2.18,2.18,0,0,1,.17-1.71,2.21,2.21,0,0,1,1.34-1.07c.18-.05,17.59-4.88,24.55-7.09a87.1,87.1,0,0,0,27.91-14.34A45,45,0,0,0,190.7,172c2.74-8.83,2.19-19.4-1.64-31.44a44.92,44.92,0,0,0-13.84-21.34,47.87,47.87,0,0,0-22.67-10.43A56.52,56.52,0,0,0,125.31,111a57.1,57.1,0,0,0-19.41,10.49,68.3,68.3,0,0,0-14.21,16.28c-3,5-6.71,13.32-6.75,13.41a2.22,2.22,0,0,1-2.89,1.13L35.79,132.34a2.2,2.2,0,0,1-1.25-2.6,82.52,82.52,0,0,1,5.89-14.64A112.07,112.07,0,0,1,68,80,115.46,115.46,0,0,1,108.4,57.75c19.07-6.07,37.93-7.19,56.06-3.35a107.49,107.49,0,0,1,48.1,23.51c13.83,11.8,23.83,27.19,29.72,45.74,4.4,13.82,6.23,26.91,5.46,38.91a83.62,83.62,0,0,1-9,33.35,94.61,94.61,0,0,1-20.92,26.9,134.55,134.55,0,0,1-29.61,20l-.59.25L200.28,283a2.16,2.16,0,0,1-.15,1.69,2.22,2.22,0,0,1-1.31,1.09L150.2,300.48A2.35,2.35,0,0,1,149.56,300.57Zm-16-57.82L151,295.63l44.42-13.47-12.63-39.69a2.22,2.22,0,0,1,.69-2.37,2.31,2.31,0,0,1,.87-.44c.15,0,.38-.16.66-.28l1.38-.57a130,130,0,0,0,28.47-19.28,90.05,90.05,0,0,0,19.95-25.65,79.14,79.14,0,0,0,8.55-31.6c.74-11.45-1-24-5.26-37.29-5.64-17.76-15.19-32.47-28.38-43.73a103.23,103.23,0,0,0-46.15-22.55C146.18,55,128.07,56.12,109.73,62A111.06,111.06,0,0,0,70.88,83.33,107.9,107.9,0,0,0,44.36,117.1a81.85,81.85,0,0,0-5,12l42.45,18.3c1.32-2.85,3.85-8.18,6.12-11.94a72.78,72.78,0,0,1,15.15-17.36A61.75,61.75,0,0,1,124,106.76a60.82,60.82,0,0,1,29.35-2.31,52.22,52.22,0,0,1,24.73,11.39,49.36,49.36,0,0,1,15.22,23.39c4.1,12.91,4.65,24.37,1.64,34.08A49.36,49.36,0,0,1,178,197.74a91.53,91.53,0,0,1-29.3,15.09c-5.55,1.76-17.57,5.14-22.51,6.52C127.76,224.44,131.74,237.15,133.52,242.75Z"/></g></g></g></svg>